<?xml version="1.0" encoding="UTF-8" standalone="no"?>
<svg
   height="128px"
   viewBox="0 0 128 128"
   width="128px"
   version="1.1"
   id="svg68"
   sodipodi:docname="cameractrls-07b-export.svg"
   inkscape:version="1.2.2 (b0a8486541, 2022-12-01)"
   xmlns:inkscape="http://www.inkscape.org/namespaces/inkscape"
   xmlns:sodipodi="http://sodipodi.sourceforge.net/DTD/sodipodi-0.dtd"
   xmlns:xlink="http://www.w3.org/1999/xlink"
   xmlns="http://www.w3.org/2000/svg"
   xmlns:svg="http://www.w3.org/2000/svg">
  <defs
     id="defs72" />
  <sodipodi:namedview
     id="namedview70"
     pagecolor="#ffffff"
     bordercolor="#000000"
     borderopacity="0.25"
     inkscape:showpageshadow="2"
     inkscape:pageopacity="0.0"
     inkscape:pagecheckerboard="0"
     inkscape:deskcolor="#d1d1d1"
     showgrid="false"
     inkscape:zoom="2.6074563"
     inkscape:cx="52.349872"
     inkscape:cy="85.907482"
     inkscape:window-width="1920"
     inkscape:window-height="1131"
     inkscape:window-x="0"
     inkscape:window-y="0"
     inkscape:window-maximized="1"
     inkscape:current-layer="svg68" />
  <linearGradient
     id="a"
     gradientUnits="userSpaceOnUse"
     x1="75.617424"
     x2="48"
     y1="104.613098"
     y2="-24">
    <stop
       offset="0"
       stop-color="#312c3c"
       id="stop2" />
    <stop
       offset="1"
       id="stop4" />
  </linearGradient>
  <linearGradient
     id="b"
     gradientUnits="userSpaceOnUse">
    <stop
       offset="0"
       stop-color="#3d3846"
       id="stop7" />
    <stop
       offset="1"
       stop-color="#77767b"
       id="stop9" />
  </linearGradient>
  <linearGradient
     id="c"
     x1="63.999962"
     x2="63.999962"
     xlink:href="#b"
     y1="7.749878"
     y2="171.812378" />
  <clipPath
     id="d">
    <path
       d="m 25 25 h 78 v 78 h -78 z m 0 0"
       id="path13" />
  </clipPath>
  <clipPath
     id="e">
    <path
       d="m 102.886719 63.945312 c 0 21.507813 -17.433594 38.941407 -38.941407 38.941407 c -21.507812 0 -38.945312 -17.433594 -38.945312 -38.941407 c 0 -21.507812 17.4375 -38.945312 38.945312 -38.945312 c 21.507813 0 38.941407 17.4375 38.941407 38.945312 z m 0 0"
       id="path16" />
  </clipPath>
  <filter
     id="f"
     height="1"
     width="1"
     x="0"
     y="0">
    <feColorMatrix
       in="SourceGraphic"
       type="matrix"
       values="0 0 0 0 1 0 0 0 0 1 0 0 0 0 1 0 0 0 1 0"
       id="feColorMatrix19" />
  </filter>
  <mask
     id="g">
    <g
       filter="url(#f)"
       id="g24">
      <rect
         fill-opacity="0.380411"
         height="128"
         width="128"
         id="rect22" />
    </g>
  </mask>
  <radialGradient
     id="h"
     cx="63.955067"
     cy="211.95488"
     gradientTransform="matrix(4.794781 -4.794781 4.794783 4.794783 -1259.089217 -645.788088)"
     gradientUnits="userSpaceOnUse"
     r="9.310895">
    <stop
       offset="0.3"
       stop-color="#ff0000"
       id="stop27" />
    <stop
       offset="1"
       stop-color="#ffffff"
       stop-opacity="0"
       id="stop29" />
  </radialGradient>
  <clipPath
     id="i">
    <rect
       height="128"
       width="128"
       id="rect32" />
  </clipPath>
  <linearGradient
     id="j"
     x1="61.518588"
     x2="61.518588"
     xlink:href="#b"
     y1="151.362493"
     y2="-30.445826" />
  <path
     d="m 104 64 c 0 22.089844 -17.910156 40 -40 40 s -40 -17.910156 -40 -40 s 17.910156 -40 40 -40 s 40 17.910156 40 40 z m 0 0"
     fill="url(#a)"
     id="path36" />
  <g
     fill="none"
     stroke="#000000"
     id="g50"
     style="stroke-width:1.5;stroke-dasharray:none">
    <path
       d="m 52.3828125 23.38671925 c -19.32421875 -5.17578125 -39.1875 6.2890625 -44.36328125 25.61328125 c -2.734375 10.203125 -0.82421875 20.5546875 4.4296875 28.81640625 c 0.37109375 -8.74609375 3.890625 -17.3828125 10.5703125 -24.0625 c 14.14453125 -14.14453125 37.078125 -14.14453125 51.2265625 0 c 1.91015625 1.91015625 3.5546875 3.984375 4.94921875 6.171875 c 0.7265625 -16.59765625 -10.1015625 -32.0625 -26.8125 -36.5390625 z m 0 0"
       id="path38"
       style="stroke-width:1.5;stroke-dasharray:none" />
    <path
       d="m 68.5 8.22265675 c -6.15234375 -1.796875 -12.859375 -1.984375 -19.5 -0.203125 c -10.203125 2.734375 -18.20703125 9.5625 -22.73828125 18.23828125 c 7.76171875 -4.046875 17 -5.31640625 26.12109375 -2.87109375 c 19.32421875 5.1796875 30.7890625 25.0390625 25.61328125 44.36328125 c -0.69921875 2.609375 -1.67578125 5.07421875 -2.875 7.375 c 14.7421875 -7.66796875 22.71875 -24.77734375 18.2421875 -41.4921875 c -3.3984375 -12.6796875 -13.12109375 -21.98046875 -24.86328125 -25.41015625 z m 0 0"
       id="path40"
       style="stroke-width:1.5;stroke-dasharray:none" />
    <path
       d="m 87.9921875 13.445313 c -3.3359375 -0.8125 -6.765625 -1.14453125 -10.1796875 -1 c 7.38671875 4.69921875 13.10546875 12.06640625 15.55078125 21.1875 c 5.17578125 19.32421875 -6.2890625 39.18359375 -25.61328125 44.36328125 c -2.609375 0.69921875 -5.23046875 1.08203125 -7.8203125 1.1953125 c 14.01171875 8.93359375 32.81640625 7.2890625 45.05078125 -4.9453125 c 14.14453125 -14.14453125 14.14453125 -37.08203125 0 -51.2265625 c -4.86328125 -4.86328125 -10.76171875 -8.0546875 -16.98828125 -9.57421875 z m 0 0"
       id="path42"
       style="stroke-width:1.5;stroke-dasharray:none" />
    <path
       d="m 115.55078125 50.18359425 c -0.37109375 8.74609375 -3.890625 17.3828125 -10.5703125 24.0625 c -14.14453125 14.14453125 -37.08203125 14.14453125 -51.2265625 0 c -1.91015625 -1.91015625 -3.5546875 -3.984375 -4.94921875 -6.171875 c -0.7265625 16.59765625 10.1015625 32.0625 26.8125 36.5390625 c 19.32421875 5.17578125 39.1875 -6.2890625 44.36328125 -25.61328125 c 2.734375 -10.203125 0.82421875 -20.5546875 -4.4296875 -28.81640625 z m 0 0"
       id="path44"
       style="stroke-width:1.5;stroke-dasharray:none" />
    <path
       d="m 52.875 52.8750005 c -14.73828125 7.66796875 -22.71484375 24.77734375 -18.23828125 41.4921875 c 5.1796875 19.32421875 25.0390625 30.7890625 44.36328125 25.61328125 c 10.19921875 -2.734375 18.20703125 -9.5625 22.734375 -18.23828125 c -7.7578125 4.046875 -16.99609375 5.31640625 -26.1171875 2.87109375 c -19.32421875 -5.1796875 -30.7890625 -25.0390625 -25.61328125 -44.36328125 c 0.69921875 -2.609375 1.67578125 -5.07421875 2.87109375 -7.375 z m 0 0"
       id="path46"
       style="stroke-width:1.5;stroke-dasharray:none" />
    <path
       d="m 57.2578125 44.18359425 c -11.88671875 -2.90234375 -24.95703125 0.2890625 -34.23828125 9.5703125 c -14.14453125 14.14453125 -14.14453125 37.08203125 0 51.2265625 c 7.46875 7.46875 17.38671875 10.98828125 27.16796875 10.57421875 c -7.390625 -4.69921875 -13.10546875 -12.06640625 -15.55078125 -21.1875 c -5.17578125 -19.32421875 6.2890625 -39.18359375 25.61328125 -44.36328125 c 2.609375 -0.69921875 5.2265625 -1.08203125 7.8203125 -1.19921875 c -3.37890625 -2.15234375 -7.03515625 -3.69921875 -10.8125 -4.62109375 z m 0 0"
       id="path48"
       style="stroke-width:1.5;stroke-dasharray:none" />
  </g>
  <path
     d="m 67.917969 48.710938 c -2.503907 0.128906 -5.03125 0.503906 -7.554688 1.179687 c -3.1875 0.996094 -4.96875 1.652344 -7.488281 2.984375 c -1.195312 2.300781 -2.171875 4.765625 -2.871094 7.375 c -0.699218 2.613281 -1.085937 5.230469 -1.199218 7.824219 c 1.394531 2.1875 3.039062 4.261719 4.949218 6.171875 c 1.914063 1.914062 3.992188 3.554687 6.183594 4.949218 c 2.589844 -0.117187 5.203125 -0.5 7.8125 -1.199218 c 2.609375 -0.699219 5.074219 -1.675782 7.375 -2.875 c 1.199219 -2.300782 2.167969 -4.761719 2.867188 -7.371094 c 0.699218 -2.609375 1.089843 -5.230469 1.203124 -7.824219 c -1.394531 -2.1875 -3.042968 -4.261719 -4.953124 -6.171875 c -1.953126 -1.953125 -4.078126 -3.628906 -6.324219 -5.042968 z m -7.980469 30.484374 c -0.003906 0 -0.003906 0 -0.007812 0 c 0.058593 0.035157 0.121093 0.070313 0.179687 0.109376 c -0.054687 -0.035157 -0.113281 -0.074219 -0.171875 -0.109376 z m 0.171875 0.109376 c -48.921875 -60.109376 -24.460937 -30.054688 0 0 z m 19.085937 -19.417969 c -61.648437 -47.164063 -30.824218 -23.582031 0 0 z m -30.394531 8.28125 c -41.382812 -52.683594 -20.691406 -26.34375 0 0 z m 26.507813 6.855469 c -59.054688 -57.253907 -29.527344 -28.628907 0 0 z m 0 0"
     id="path52" />
  <path
     d="m 64 6 c -32.03125 0 -58 25.96875 -58 58 s 25.96875 58 58 58 s 58 -25.96875 58 -58 s -25.96875 -58 -58 -58 z m -0.121094 17.878906 c 22.160156 0 40.121094 17.964844 40.121094 40.121094 s -17.960938 40.121094 -40.121094 40.121094 c -22.15625 0 -40.121094 -17.960938 -40.121094 -40.121094 s 17.964844 -40.121094 40.121094 -40.121094 z m 0 0"
     fill="url(#c)"
     id="path54" />
  <g
     clip-path="url(#d)"
     id="g62">
    <g
       clip-path="url(#e)"
       id="g60">
      <g
         clip-path="url(#i)"
         mask="url(#g)"
         id="g58">
        <path
           d="m 68.507812 45.253906 c 0 12.84375 -10.410156 23.253906 -23.253906 23.253906 s -23.253906 -10.410156 -23.253906 -23.253906 s 10.410156 -23.253906 23.253906 -23.253906 s 23.253906 10.410156 23.253906 23.253906 z m 0 0"
           fill="url(#h)"
           id="path56" />
      </g>
    </g>
  </g>
  <path
     d="m 63.878906 21.5 c -23.472656 0 -42.5 19.027344 -42.5 42.5 s 19.027344 42.5 42.5 42.5 s 42.5 -19.027344 42.5 -42.5 s -19.027344 -42.5 -42.5 -42.5 z m 0.121094 5 c 20.710938 0 37.5 16.789062 37.5 37.5 s -16.789062 37.5 -37.5 37.5 s -37.5 -16.789062 -37.5 -37.5 s 16.789062 -37.5 37.5 -37.5 z m 0 0"
     fill="url(#j)"
     id="path64" />
  <path
     d="m 64 4 c -33.046875 0 -59.835938 26.863281 -59.835938 60 s 26.789063 60 59.835938 60 s 59.835938 -26.863281 59.835938 -60 s -26.789063 -60 -59.835938 -60 z m 0 4 c 30.929688 0 56 25.070312 56 56 s -25.070312 56 -56 56 s -56 -25.070312 -56 -56 s 25.070312 -56 56 -56 z m 0 0"
     fill="#9a9996"
     id="path66" />
</svg>
